<svg width="717" height="709" viewBox="0 0 717 709" fill="none" xmlns="http://www.w3.org/2000/svg">
<path d="M717 542.052H0V542.406H717V542.052Z" fill="#EBEBEB"/>
<path d="M645.157 564.859H597.663V565.214H645.157V564.859Z" fill="#EBEBEB"/>
<path d="M474.969 568.715H462.508V569.069H474.969V568.715Z" fill="#EBEBEB"/>
<path d="M596.229 551.705H568.71V552.059H596.229V551.705Z" fill="#EBEBEB"/>
<path d="M137.162 554.086H75.2276V554.44H137.162V554.086Z" fill="#EBEBEB"/>
<path d="M159.016 554.086H149.939V554.44H159.016V554.086Z" fill="#EBEBEB"/>
<path d="M322.865 560.068H188.528V560.422H322.865V560.068Z" fill="#EBEBEB"/>
<path d="M339.858 478.831H62.9669C60.7978 478.827 58.7188 477.973 57.1863 476.455C55.6538 474.938 54.7931 472.881 54.7931 470.737V85.9854C54.812 83.8536 55.6811 81.8151 57.2115 80.3129C58.7419 78.8107 60.8102 77.9661 62.9669 77.9624H339.858C342.03 77.9624 344.112 78.8152 345.648 80.3331C347.183 81.851 348.046 83.9097 348.046 86.0563V470.737C348.046 472.884 347.183 474.943 345.648 476.46C344.112 477.978 342.03 478.831 339.858 478.831ZM62.9669 78.2459C60.8929 78.2497 58.9051 79.0667 57.4398 80.5178C55.9746 81.9688 55.1516 83.9352 55.1516 85.9854V470.737C55.1516 472.787 55.9746 474.754 57.4398 476.205C58.9051 477.656 60.8929 478.473 62.9669 478.477H339.858C341.933 478.473 343.923 477.656 345.39 476.206C346.858 474.755 347.684 472.789 347.688 470.737V85.9854C347.684 83.9339 346.858 81.9675 345.39 80.5169C343.923 79.0663 341.933 78.2497 339.858 78.2459H62.9669Z" fill="#EBEBEB"/>
<path d="M650.047 478.831H373.141C370.971 478.827 368.89 477.973 367.355 476.456C365.821 474.939 364.957 472.883 364.953 470.737V85.9854C364.976 83.8523 365.848 81.8139 367.381 80.312C368.913 78.8102 370.983 77.966 373.141 77.9624H650.047C652.201 77.9698 654.265 78.8161 655.793 80.3179C657.32 81.8197 658.187 83.856 658.206 85.9854V470.737C658.206 472.879 657.347 474.933 655.818 476.45C654.289 477.967 652.213 478.824 650.047 478.831ZM373.141 78.2459C371.066 78.2497 369.076 79.0663 367.609 80.5169C366.141 81.9675 365.315 83.9339 365.312 85.9854V470.737C365.315 472.789 366.141 474.755 367.609 476.206C369.076 477.656 371.066 478.473 373.141 478.477H650.047C652.122 478.473 654.111 477.656 655.579 476.206C657.046 474.755 657.872 472.789 657.876 470.737V85.9854C657.872 83.9339 657.046 81.9675 655.579 80.5169C654.111 79.0663 652.122 78.2497 650.047 78.2459H373.141Z" fill="#EBEBEB"/>
<path d="M359.69 539.004H569.728V234.596H359.69V539.004Z" fill="#F0F0F0"/>
<path d="M367.104 300.411H562.3V244.193L367.104 244.193V300.411Z" fill="#E0E0E0"/>
<path d="M551.215 300.411H562.3V253.293H551.215V300.411Z" fill="#EBEBEB"/>
<path d="M497.612 300.411H508.697V253.293H497.612V300.411Z" fill="#EBEBEB"/>
<path d="M428.649 298.543L439.573 300.404L447.67 253.972L436.746 252.11L428.649 298.543Z" fill="#EBEBEB"/>
<path d="M537.478 300.411H548.562V259.502H537.478V300.411Z" fill="#EBEBEB"/>
<path d="M511.995 300.411H523.08V259.502H511.995V300.411Z" fill="#EBEBEB"/>
<path d="M447.666 300.411H458.751V259.502H447.666V300.411Z" fill="#EBEBEB"/>
<path d="M474.079 298.018L484.899 300.395L493.878 260.461L483.057 258.083L474.079 298.018Z" fill="#EBEBEB"/>
<path d="M527.884 300.411H533.434V250.954H527.884V300.411Z" fill="#EBEBEB"/>
<path d="M461.934 300.411H467.484V250.954H461.934V300.411Z" fill="#EBEBEB"/>
<path d="M562.314 309.312H367.118V365.53H562.314V309.312Z" fill="#E0E0E0"/>
<path d="M378.203 318.413H367.118V365.53H378.203V318.413Z" fill="#EBEBEB"/>
<path d="M431.82 318.413H420.736V365.53H431.82V318.413Z" fill="#EBEBEB"/>
<path d="M492.68 317.21L481.757 319.072L489.853 365.504L500.777 363.643L492.68 317.21Z" fill="#EBEBEB"/>
<path d="M391.941 324.621H380.856V365.53H391.941V324.621Z" fill="#EBEBEB"/>
<path d="M417.423 324.621H406.338V365.53H417.423V324.621Z" fill="#EBEBEB"/>
<path d="M481.752 324.621H470.667V365.53H481.752V324.621Z" fill="#EBEBEB"/>
<path d="M446.386 323.199L435.565 325.576L444.543 365.51L455.364 363.133L446.386 323.199Z" fill="#EBEBEB"/>
<path d="M401.534 316.074H395.985V365.53H401.534V316.074Z" fill="#EBEBEB"/>
<path d="M467.484 316.074H461.934V365.53H467.484V316.074Z" fill="#EBEBEB"/>
<path d="M551.215 365.53H562.3V318.413H551.215V365.53Z" fill="#EBEBEB"/>
<path d="M537.478 365.53H548.562V324.621H537.478V365.53Z" fill="#EBEBEB"/>
<path d="M511.995 365.53H523.08V324.621H511.995V365.53Z" fill="#EBEBEB"/>
<path d="M527.884 365.53H533.434V316.074H527.884V365.53Z" fill="#EBEBEB"/>
<path d="M367.104 430.65H562.3V374.432H367.104V430.65Z" fill="#E0E0E0"/>
<path d="M439.191 430.65H450.276V383.533H439.191V430.65Z" fill="#EBEBEB"/>
<path d="M370.238 428.777L381.162 430.638L389.258 384.205L378.335 382.344L370.238 428.777Z" fill="#EBEBEB"/>
<path d="M479.071 430.65H490.156V389.741H479.071V430.65Z" fill="#EBEBEB"/>
<path d="M453.574 430.65H464.659V389.741H453.574V430.65Z" fill="#EBEBEB"/>
<path d="M389.245 430.65H400.33V389.741H389.245V430.65Z" fill="#EBEBEB"/>
<path d="M415.665 428.251L426.486 430.628L435.465 390.693L424.644 388.316L415.665 428.251Z" fill="#EBEBEB"/>
<path d="M469.463 430.65H475.013V381.194H469.463V430.65Z" fill="#EBEBEB"/>
<path d="M403.513 430.65H409.063V381.194H403.513V430.65Z" fill="#EBEBEB"/>
<path d="M497.811 428.775L508.734 430.636L516.831 384.204L505.907 382.342L497.811 428.775Z" fill="#EBEBEB"/>
<path d="M516.814 430.65H527.898V389.741H516.814V430.65Z" fill="#EBEBEB"/>
<path d="M543.246 428.254L554.067 430.631L563.046 390.696L552.225 388.319L543.246 428.254Z" fill="#EBEBEB"/>
<path d="M531.082 430.65H536.632V381.194H531.082V430.65Z" fill="#EBEBEB"/>
<path d="M605.965 234.61H569.728V539.812H605.965V234.61Z" fill="#E0E0E0"/>
<path d="M479.759 196.76C493.286 195.113 502.902 182.938 501.237 169.566C499.571 156.194 487.254 146.689 473.726 148.335C460.199 149.982 450.582 162.157 452.248 175.529C453.914 188.901 466.231 198.406 479.759 196.76Z" fill="#E0E0E0"/>
<path d="M478.785 193.244C490.315 192.116 498.738 181.963 497.597 170.565C496.456 159.167 486.184 150.842 474.654 151.969C463.124 153.097 454.701 163.251 455.842 174.648C456.983 186.046 467.255 194.371 478.785 193.244Z" fill="#F0F0F0"/>
<path d="M477.723 158.335V172.836L487.445 167.407" fill="#F0F0F0"/>
<path d="M477.723 174.253C477.465 174.258 477.211 174.189 476.991 174.055C476.777 173.929 476.6 173.751 476.477 173.537C476.354 173.323 476.289 173.082 476.289 172.836V158.335C476.289 157.959 476.44 157.598 476.709 157.332C476.978 157.066 477.342 156.917 477.723 156.917C478.103 156.917 478.468 157.066 478.737 157.332C479.006 157.598 479.157 157.959 479.157 158.335V170.412L486.728 166.159C486.892 166.065 487.073 166.005 487.26 165.98C487.448 165.956 487.638 165.969 487.821 166.017C488.004 166.066 488.175 166.15 488.324 166.264C488.474 166.379 488.599 166.521 488.693 166.684C488.787 166.846 488.848 167.026 488.871 167.212C488.895 167.398 488.881 167.586 488.83 167.767C488.78 167.948 488.693 168.117 488.576 168.264C488.459 168.411 488.313 168.534 488.148 168.626L478.425 174.055C478.212 174.18 477.97 174.248 477.723 174.253Z" fill="#E0E0E0"/>
<path d="M112.813 591.196H242.36V574.838H112.813V591.196Z" fill="#263238"/>
<path opacity="0.2" d="M112.798 591.196H192.572V574.838H112.798V591.196Z" fill="white"/>
<path d="M245.243 463.494H110.705V584.251H245.243V463.494Z" fill="#D4472B"/>
<path opacity="0.4" d="M245.243 463.494H110.705V584.251H245.243V463.494Z" fill="white"/>
<path opacity="0.2" d="M245.243 463.494H195.741V584.251H245.243V463.494Z" fill="black"/>
<path d="M106.718 463.522C106.716 464.102 106.83 464.676 107.054 465.211C107.278 465.746 107.607 466.232 108.023 466.641C108.431 467.055 108.919 467.384 109.459 467.605C109.999 467.827 110.579 467.938 111.164 467.931H244.769C245.375 467.965 245.982 467.876 246.552 467.67C247.122 467.464 247.644 467.146 248.085 466.734C248.526 466.322 248.878 465.825 249.118 465.274C249.358 464.723 249.482 464.129 249.482 463.529C249.482 462.929 249.358 462.336 249.118 461.785C248.878 461.234 248.526 460.737 248.085 460.325C247.644 459.913 247.122 459.594 246.552 459.388C245.982 459.183 245.375 459.094 244.769 459.128H111.164C109.985 459.128 108.854 459.591 108.02 460.415C107.187 461.239 106.718 462.357 106.718 463.522Z" fill="#D4472B"/>
<path opacity="0.2" d="M106.718 463.522C106.716 464.102 106.83 464.676 107.054 465.211C107.278 465.746 107.607 466.232 108.023 466.641C108.431 467.055 108.919 467.384 109.459 467.605C109.999 467.827 110.579 467.938 111.164 467.931H195.569C196.175 467.965 196.782 467.876 197.352 467.67C197.922 467.464 198.443 467.146 198.885 466.734C199.326 466.322 199.677 465.825 199.917 465.274C200.158 464.723 200.281 464.129 200.281 463.529C200.281 462.929 200.158 462.336 199.917 461.785C199.677 461.234 199.326 460.737 198.885 460.325C198.443 459.913 197.922 459.594 197.352 459.388C196.782 459.183 196.175 459.094 195.569 459.128H111.164C109.985 459.128 108.854 459.591 108.02 460.415C107.187 461.239 106.718 462.357 106.718 463.522Z" fill="white"/>
<path opacity="0.3" d="M116.885 498.364H188.686V474.182H116.885V498.364Z" fill="white"/>
<path opacity="0.3" d="M116.885 576.766H188.686V503.17H116.885L116.885 576.766Z" fill="white"/>
<path opacity="0.2" d="M150.47 479.582C150.47 480.034 150.605 480.475 150.859 480.85C151.112 481.226 151.473 481.518 151.895 481.691C152.317 481.864 152.781 481.909 153.229 481.821C153.677 481.733 154.088 481.515 154.411 481.196C154.734 480.877 154.954 480.47 155.043 480.028C155.132 479.585 155.086 479.126 154.911 478.709C154.737 478.292 154.441 477.936 154.061 477.685C153.681 477.434 153.235 477.3 152.778 477.3C152.166 477.3 151.579 477.541 151.146 477.969C150.713 478.397 150.47 478.977 150.47 479.582Z" fill="black"/>
<path opacity="0.2" d="M150.47 510.824C150.47 511.275 150.605 511.717 150.859 512.092C151.112 512.467 151.473 512.76 151.895 512.933C152.317 513.105 152.781 513.15 153.229 513.062C153.677 512.974 154.088 512.757 154.411 512.438C154.734 512.119 154.954 511.712 155.043 511.269C155.132 510.827 155.086 510.368 154.911 509.951C154.737 509.534 154.441 509.177 154.061 508.927C153.681 508.676 153.235 508.542 152.778 508.542C152.475 508.542 152.175 508.601 151.895 508.716C151.615 508.83 151.36 508.998 151.146 509.21C150.931 509.422 150.761 509.674 150.645 509.951C150.529 510.228 150.47 510.524 150.47 510.824Z" fill="black"/>
<path d="M127.64 458.66H155.718V452.111H127.64V458.66Z" fill="#D4472B"/>
<path opacity="0.7" d="M127.64 458.66H155.718V452.111H127.64V458.66Z" fill="white"/>
<path d="M126.192 459.27H148.19C149.228 459.27 150.224 458.862 150.958 458.136C151.692 457.41 152.104 456.426 152.104 455.4C152.104 454.374 151.692 453.389 150.958 452.664C150.224 451.938 149.228 451.53 148.19 451.53H126.192V452.948H148.19C148.848 452.948 149.479 453.206 149.944 453.666C150.409 454.126 150.67 454.749 150.67 455.4C150.67 456.05 150.409 456.674 149.944 457.134C149.479 457.594 148.848 457.852 148.19 457.852H126.192V459.27Z" fill="#263238"/>
<path d="M144.834 459.27H166.817C167.331 459.27 167.84 459.17 168.315 458.975C168.79 458.781 169.222 458.496 169.585 458.136C169.949 457.777 170.237 457.35 170.434 456.881C170.631 456.411 170.732 455.908 170.732 455.4C170.732 454.892 170.631 454.388 170.434 453.919C170.237 453.449 169.949 453.023 169.585 452.664C169.222 452.304 168.79 452.019 168.315 451.825C167.84 451.63 167.331 451.53 166.817 451.53H144.834V452.948H148.175C148.833 452.948 149.464 453.206 149.929 453.666C150.395 454.126 150.656 454.749 150.656 455.4C150.656 456.05 150.395 456.674 149.929 457.134C149.464 457.594 148.833 457.852 148.175 457.852H144.834V459.27Z" fill="#263238"/>
<g opacity="0.4">
<path d="M126.192 459.27H148.19C149.228 459.27 150.224 458.862 150.958 458.136C151.692 457.41 152.104 456.426 152.104 455.4C152.104 454.374 151.692 453.389 150.958 452.664C150.224 451.938 149.228 451.53 148.19 451.53H126.192V452.948H148.19C148.848 452.948 149.479 453.206 149.944 453.666C150.409 454.126 150.67 454.749 150.67 455.4C150.67 456.05 150.409 456.674 149.944 457.134C149.479 457.594 148.848 457.852 148.19 457.852H126.192V459.27Z" fill="white"/>
</g>
<path d="M131.268 450.906H159.346V444.358H131.268V450.906Z" fill="#D4472B"/>
<path opacity="0.7" d="M131.268 450.906H159.346V444.358H131.268V450.906Z" fill="white"/>
<path d="M148.491 451.516H170.488C171.487 451.456 172.426 451.022 173.112 450.301C173.798 449.581 174.18 448.629 174.18 447.639C174.18 446.65 173.798 445.697 173.112 444.977C172.426 444.256 171.487 443.822 170.488 443.762H148.491V445.18H151.832C152.459 445.227 153.045 445.506 153.473 445.962C153.9 446.418 154.138 447.017 154.138 447.639C154.138 448.261 153.9 448.86 153.473 449.316C153.045 449.772 152.459 450.051 151.832 450.098H148.491V451.516Z" fill="#D4472B"/>
<g opacity="0.4">
<path d="M148.491 451.516H170.488C171.487 451.456 172.426 451.022 173.112 450.301C173.798 449.581 174.18 448.629 174.18 447.639C174.18 446.65 173.798 445.697 173.112 444.977C172.426 444.256 171.487 443.822 170.488 443.762H148.491V445.18H151.832C152.459 445.227 153.045 445.506 153.473 445.962C153.9 446.418 154.138 447.017 154.138 447.639C154.138 448.261 153.9 448.86 153.473 449.316C153.045 449.772 152.459 450.051 151.832 450.098H148.491V451.516Z" fill="white"/>
</g>
<path d="M129.834 451.516H151.832C152.831 451.456 153.77 451.022 154.456 450.301C155.142 449.581 155.524 448.629 155.524 447.639C155.524 446.65 155.142 445.697 154.456 444.977C153.77 444.256 152.831 443.822 151.832 443.762H129.834V445.18H151.832C152.459 445.227 153.045 445.506 153.473 445.962C153.9 446.418 154.138 447.017 154.138 447.639C154.138 448.261 153.9 448.86 153.473 449.316C153.045 449.772 152.459 450.051 151.832 450.098H129.834V451.516Z" fill="#D4472B"/>
<g opacity="0.2">
<path d="M129.834 451.516H151.832C152.831 451.456 153.77 451.022 154.456 450.301C155.142 449.581 155.524 448.629 155.524 447.639C155.524 446.65 155.142 445.697 154.456 444.977C153.77 444.256 152.831 443.822 151.832 443.762H129.834V445.18H151.832C152.459 445.227 153.045 445.506 153.473 445.962C153.9 446.418 154.138 447.017 154.138 447.639C154.138 448.261 153.9 448.86 153.473 449.316C153.045 449.772 152.459 450.051 151.832 450.098H129.834V451.516Z" fill="white"/>
</g>
<path d="M125.504 443.167H153.581V436.618H125.504V443.167Z" fill="#D4472B"/>
<path opacity="0.7" d="M125.504 443.167H153.581V436.618H125.504V443.167Z" fill="white"/>
<path d="M142.726 443.762H164.709C165.748 443.762 166.743 443.354 167.477 442.629C168.212 441.903 168.624 440.919 168.624 439.892C168.624 438.866 168.212 437.882 167.477 437.156C166.743 436.43 165.748 436.023 164.709 436.023H142.726V437.44H146.067C146.725 437.44 147.356 437.699 147.821 438.158C148.287 438.618 148.548 439.242 148.548 439.892C148.548 440.543 148.287 441.167 147.821 441.626C147.356 442.086 146.725 442.345 146.067 442.345H142.726V443.762Z" fill="#263238"/>
<g opacity="0.2">
<path d="M142.726 443.762H164.709C165.748 443.762 166.743 443.354 167.477 442.629C168.212 441.903 168.624 440.919 168.624 439.892C168.624 438.866 168.212 437.882 167.477 437.156C166.743 436.43 165.748 436.023 164.709 436.023H142.726V437.44H146.067C146.725 437.44 147.356 437.699 147.821 438.158C148.287 438.618 148.548 439.242 148.548 439.892C148.548 440.543 148.287 441.167 147.821 441.626C147.356 442.086 146.725 442.345 146.067 442.345H142.726V443.762Z" fill="white"/>
</g>
<path d="M124.07 443.762H146.053C147.091 443.762 148.087 443.354 148.821 442.629C149.555 441.903 149.968 440.919 149.968 439.892C149.968 438.866 149.555 437.882 148.821 437.156C148.087 436.43 147.091 436.023 146.053 436.023H124.07V437.44H146.053C146.711 437.44 147.342 437.699 147.807 438.158C148.272 438.618 148.534 439.242 148.534 439.892C148.534 440.543 148.272 441.167 147.807 441.626C147.342 442.086 146.711 442.345 146.053 442.345H124.07V443.762Z" fill="#263238"/>
<g opacity="0.4">
<path d="M124.07 443.762H146.053C147.091 443.762 148.087 443.354 148.821 442.629C149.555 441.903 149.968 440.919 149.968 439.892C149.968 438.866 149.555 437.882 148.821 437.156C148.087 436.43 147.091 436.023 146.053 436.023H124.07V437.44H146.053C146.711 437.44 147.342 437.699 147.807 438.158C148.272 438.618 148.534 439.242 148.534 439.892C148.534 440.543 148.272 441.167 147.807 441.626C147.342 442.086 146.711 442.345 146.053 442.345H124.07V443.762Z" fill="white"/>
</g>
<path d="M170.832 428.878H142.755V435.427H170.832V428.878Z" fill="#D4472B"/>
<path opacity="0.7" d="M170.832 428.878H142.755V435.427H170.832V428.878Z" fill="white"/>
<path d="M172.266 436.023H150.269C149.27 435.963 148.331 435.528 147.645 434.808C146.959 434.088 146.577 433.135 146.577 432.146C146.577 431.156 146.959 430.204 147.645 429.484C148.331 428.763 149.27 428.329 150.269 428.269H172.266V429.686H150.269C149.642 429.734 149.056 430.013 148.628 430.469C148.2 430.925 147.963 431.524 147.963 432.146C147.963 432.768 148.2 433.366 148.628 433.823C149.056 434.279 149.642 434.558 150.269 434.605H172.266V436.023Z" fill="#D4472B"/>
<path d="M153.61 436.023H131.613C130.613 435.963 129.675 435.528 128.989 434.808C128.303 434.088 127.921 433.135 127.921 432.146C127.921 431.156 128.303 430.204 128.989 429.484C129.675 428.763 130.613 428.329 131.613 428.269H153.61V429.686H150.269C149.642 429.734 149.056 430.013 148.628 430.469C148.2 430.925 147.963 431.524 147.963 432.146C147.963 432.768 148.2 433.366 148.628 433.823C149.056 434.279 149.642 434.558 150.269 434.605H153.61V436.023Z" fill="#D4472B"/>
<g opacity="0.4">
<path d="M172.266 436.023H150.269C149.27 435.963 148.331 435.528 147.645 434.808C146.959 434.088 146.577 433.135 146.577 432.146C146.577 431.156 146.959 430.204 147.645 429.484C148.331 428.763 149.27 428.329 150.269 428.269H172.266V429.686H150.269C149.642 429.734 149.056 430.013 148.628 430.469C148.2 430.925 147.963 431.524 147.963 432.146C147.963 432.768 148.2 433.366 148.628 433.823C149.056 434.279 149.642 434.558 150.269 434.605H172.266V436.023Z" fill="white"/>
</g>
<path d="M192.887 452.182C195.139 452.409 202.452 451.998 204.359 452.182C204.818 452.182 205.205 452.31 205.621 452.381C206.284 452.26 206.955 452.193 207.629 452.182C209.622 452.182 216.663 452.182 219.101 452.182C224.392 452.182 229.311 456.732 237.628 457.852L236.682 459.156H174.403V456.718C180.498 457.98 187.768 451.615 192.887 452.182Z" fill="#D4472B"/>
<path opacity="0.5" d="M192.887 452.182C195.139 452.409 202.452 451.998 204.359 452.182C204.818 452.182 205.205 452.31 205.621 452.381C206.284 452.26 206.955 452.193 207.629 452.182C209.622 452.182 216.663 452.182 219.101 452.182C224.392 452.182 229.311 456.732 237.628 457.852L236.682 459.156H174.403V456.718C180.498 457.98 187.768 451.615 192.887 452.182Z" fill="white"/>
<path opacity="0.3" d="M237.642 457.852C229.325 456.718 224.407 452.182 219.115 452.182C217.677 452.129 216.245 452.396 214.924 452.962C213.604 453.529 212.429 454.381 211.486 455.457C210.577 454.46 209.473 453.656 208.241 453.093C207.008 452.53 205.673 452.22 204.316 452.182C199.211 451.686 191.941 458.051 185.832 456.732V459.17H236.653L237.642 457.852Z" fill="white"/>
<path d="M211.486 455.386C210.655 455.386 210.368 458.221 210.368 458.221H212.648C212.648 458.221 212.318 455.372 211.486 455.386Z" fill="#D4472B"/>
<path d="M173.786 459.255H237.642V458.164H173.786V459.255Z" fill="#263238"/>
<path d="M281.681 587.213H288.492L288.492 321.205H281.681L281.681 587.213Z" fill="#263238"/>
<path opacity="0.2" d="M281.681 587.213H288.492L288.492 321.205H281.681L281.681 587.213Z" fill="white"/>
<path d="M294.73 588.985H275.443V576.709C275.443 574.909 276.166 573.182 277.455 571.908C278.743 570.635 280.49 569.92 282.312 569.92H287.876C289.697 569.92 291.444 570.635 292.733 571.908C294.021 573.182 294.744 574.909 294.744 576.709V588.985H294.73Z" fill="#263238"/>
<path d="M259.382 294.939H310.805C311.938 337.804 328.013 360.626 328.013 360.626H242.16C242.16 360.626 258.249 337.804 259.382 294.939Z" fill="#D4472B"/>
<path opacity="0.3" d="M294.73 588.985H275.443V576.709C275.443 574.909 276.166 573.182 277.455 571.908C278.743 570.635 280.49 569.92 282.312 569.92H287.876C289.697 569.92 291.444 570.635 292.733 571.908C294.021 573.182 294.744 574.909 294.744 576.709V588.985H294.73Z" fill="white"/>
<path d="M313.071 591.196H257.145C257.145 589.08 257.995 587.05 259.51 585.553C261.024 584.057 263.077 583.216 265.218 583.216H304.997C307.139 583.216 309.192 584.057 310.706 585.553C312.22 587.05 313.071 589.08 313.071 591.196Z" fill="#263238"/>
<path opacity="0.4" d="M313.071 591.196H257.145C257.145 589.08 257.995 587.05 259.51 585.553C261.024 584.057 263.077 583.216 265.218 583.216H304.997C307.139 583.216 309.192 584.057 310.706 585.553C312.22 587.05 313.071 589.08 313.071 591.196Z" fill="white"/>
<path opacity="0.5" d="M242.16 360.626H328.013C328.013 360.626 322.808 353.241 318.104 338.967C313.535 324.716 311.072 309.887 310.791 294.939H259.368C259.084 309.881 256.626 324.704 252.069 338.953C247.365 353.227 242.16 360.626 242.16 360.626Z" fill="white"/>
<path opacity="0.2" d="M252.069 338.952C255.873 344.077 260.844 348.243 266.58 351.115C272.317 353.987 278.656 355.484 285.086 355.484C291.516 355.484 297.856 353.987 303.592 351.115C309.328 348.243 314.3 344.077 318.104 338.952C313.535 324.701 311.072 309.872 310.791 294.925H259.368C259.085 309.871 256.627 324.699 252.069 338.952Z" fill="white"/>
<path d="M540.862 557.843C540.574 557.26 540.433 556.618 540.451 555.97C540.469 555.322 540.645 554.688 540.965 554.123C541.285 553.557 541.739 553.076 542.288 552.722C542.837 552.368 543.464 552.15 544.117 552.088C543.558 550.434 543.522 548.652 544.014 546.978C544.506 545.304 545.502 543.818 546.87 542.718C547.197 542.417 547.616 542.233 548.06 542.193C548.536 542.244 548.983 542.442 549.337 542.76C551.88 544.546 554.408 546.342 556.923 548.147C557.532 548.494 558.048 548.98 558.428 549.564C559.991 552.527 554.399 556.34 556.693 558.792C557.353 559.487 558.414 559.643 559.246 560.21C561.038 561.315 561.268 563.768 562.114 565.71C562.96 567.652 565.899 569.14 567.018 567.354C566.186 565.497 568.696 563.895 570.732 563.668C572.768 563.442 574.905 563.314 576.023 561.429C578.891 563.924 585.387 556.95 585.244 554.143C587.625 554.327 589.245 556.524 589.761 558.721C590.094 561.04 590.176 563.388 590.005 565.724C590.077 570.274 591.568 574.739 591.439 579.275C591.439 582.819 590.005 586.76 586.707 588.177C585.08 588.745 583.352 588.977 581.63 588.857L544.346 588.616C543.45 588.686 542.549 588.54 541.722 588.191C540.03 587.312 539.672 585.129 539.514 583.258C538.854 575.235 538.19 567.203 537.521 559.161L540.862 557.843Z" fill="#D4472B"/>
<path opacity="0.3" d="M540.862 557.843C540.574 557.26 540.433 556.618 540.451 555.97C540.469 555.322 540.645 554.688 540.965 554.123C541.285 553.557 541.739 553.076 542.288 552.722C542.837 552.368 543.464 552.15 544.117 552.088C543.558 550.434 543.522 548.652 544.014 546.978C544.506 545.304 545.502 543.818 546.87 542.718C547.197 542.417 547.616 542.233 548.06 542.193C548.536 542.244 548.983 542.442 549.337 542.76C551.88 544.546 554.408 546.342 556.923 548.147C557.532 548.494 558.048 548.98 558.428 549.564C559.991 552.527 554.399 556.34 556.693 558.792C557.353 559.487 558.414 559.643 559.246 560.21C561.038 561.315 561.268 563.768 562.114 565.71C562.96 567.652 565.899 569.14 567.018 567.354C566.186 565.497 568.696 563.895 570.732 563.668C572.768 563.442 574.905 563.314 576.023 561.429C578.891 563.924 585.387 556.95 585.244 554.143C587.625 554.327 589.245 556.524 589.761 558.721C590.094 561.04 590.176 563.388 590.005 565.724C590.077 570.274 591.568 574.739 591.439 579.275C591.439 582.819 590.005 586.76 586.707 588.177C585.08 588.745 583.352 588.977 581.63 588.857L544.346 588.616C543.45 588.686 542.549 588.54 541.722 588.191C540.03 587.312 539.672 585.129 539.514 583.258C538.854 575.235 538.19 567.203 537.521 559.161L540.862 557.843Z" fill="white"/>
<path d="M532.172 518.805L532.645 524.602L532.989 528.727L533.85 539.5L534.351 545.652L535.04 553.874L535.327 557.403L535.413 558.452L535.742 562.591L536.216 568.261L536.488 571.791L536.789 575.349L537.133 579.502L537.392 582.663L537.678 586.178L537.807 587.709H590.98L591.095 586.178L591.382 582.649L591.64 579.516L591.984 575.363L592.285 571.791L592.572 568.261L593.031 562.591L593.375 558.452L593.461 557.403L593.748 553.874L594.422 545.652L594.924 539.486L595.813 528.727L596.142 524.602L596.63 518.805H532.172ZM535.111 521.498H536.316L535.197 522.604L535.111 521.498ZM540.159 521.498H541.407L546.727 526.757L540.79 532.639L535.599 527.522L535.484 526.105L540.159 521.498ZM536.675 540.521L540.79 536.453L546.727 542.321L540.79 548.204L536.99 544.447L536.675 540.521ZM591.797 544.447L588.012 548.204L582.061 542.321L588.012 536.453L592.113 540.521L591.797 544.447ZM548.648 528.727L554.6 534.61L548.648 540.492L542.697 534.61L548.648 528.727ZM548.648 524.942L545.25 521.569H552.09L548.648 524.942ZM556.521 536.523L562.472 542.392L556.521 548.274L550.656 542.335L556.521 536.523ZM564.394 556.042L558.457 550.174L564.394 544.305L570.33 550.174L564.394 556.042ZM572.252 552.073L578.203 557.956L572.266 563.824L566.315 557.942L572.252 552.073ZM562.472 557.942L556.521 563.824L550.656 557.899L556.593 552.017L562.472 557.942ZM558.457 534.61L564.394 528.727L570.33 534.61L564.394 540.492L558.457 534.61ZM572.252 536.523L578.203 542.392L572.252 548.274L566.315 542.392L572.252 536.523ZM574.188 534.61L580.139 528.727L586.076 534.61L580.139 540.492L574.188 534.61ZM586.076 550.202L580.139 556.071L574.188 550.202L580.139 544.334L586.076 550.202ZM580.139 559.884L586.076 565.766L580.139 571.635L574.188 565.766L580.139 559.884ZM578.203 573.548L572.252 579.417L566.315 573.548L572.266 567.666L578.203 573.548ZM564.394 571.635L558.457 565.766L564.394 559.884L570.33 565.766L564.394 571.635ZM562.472 573.548L556.521 579.417L550.656 573.463L556.593 567.581L562.472 573.548ZM554.6 581.175L550.742 584.988H546.555L542.697 581.175L548.648 575.292L554.6 581.175ZM548.648 571.493L542.697 565.625L548.648 559.742L554.6 565.625L548.648 571.493ZM548.648 555.901L542.697 550.032L548.648 544.32L554.6 550.188L548.648 555.901ZM555.818 521.427H557.08L562.4 526.686L556.449 532.569L550.656 526.771L555.818 521.427ZM560.923 521.427H567.864L564.465 524.801L560.923 521.427ZM571.564 521.427H572.811L578.131 526.686L572.18 532.569L566.244 526.686L571.564 521.427ZM583.452 521.427L580.067 524.801L576.669 521.427H583.452ZM588.557 521.427L593.217 526.048L593.102 527.466L587.94 532.583L581.989 526.7L587.309 521.441L588.557 521.427ZM593.604 521.427L593.504 522.518L592.4 521.427H593.604ZM592.328 536.92L589.862 534.468L592.73 531.633L592.328 536.92ZM591.224 551.407L589.933 550.131L591.453 548.615L591.224 551.45V551.407ZM590.406 561.415L588.012 563.782L582.061 557.913L588.012 552.031L590.88 554.937L590.406 561.415ZM590.048 565.809L589.933 565.695L590.062 565.554V565.809H590.048ZM589.015 578.34L588.012 579.346L582.061 573.478L588.012 567.595L589.761 569.324L589.015 578.34ZM586.076 585.059L588.012 583.145L588.585 583.712L588.471 585.129L586.076 585.059ZM582.233 585.059H578.045L574.188 581.175L580.139 575.292L586.076 581.175L582.233 585.059ZM570.33 585.059L572.252 583.145L574.188 585.059H570.33ZM562.286 585.059L558.457 581.175L564.394 575.292L570.33 581.175L566.43 585.044L562.286 585.059ZM554.585 585.059L556.521 583.145L558.457 585.059H554.585ZM540.245 583.641L540.819 583.074L542.74 584.988H540.346L540.245 583.641ZM539.055 569.253L540.819 567.524L546.756 573.407L540.819 579.275L539.786 578.269L539.055 569.253ZM538.739 565.469L538.897 565.625L538.768 565.738V565.469H538.739ZM537.865 554.866L540.819 551.96L546.756 557.843L540.819 563.711L538.395 561.344L537.865 554.866ZM537.32 548.572L538.869 550.089L537.564 551.379L537.32 548.572ZM535.886 531.633L538.754 534.468L536.316 537.019L535.886 531.661V531.633Z" fill="#D4472B"/>
<g opacity="0.6">
<path d="M532.172 518.805L532.645 524.602L532.989 528.727L533.85 539.5L534.351 545.652L535.04 553.874L535.327 557.403L535.413 558.452L535.742 562.591L536.216 568.261L536.488 571.791L536.789 575.349L537.133 579.502L537.392 582.663L537.678 586.178L537.807 587.709H590.98L591.095 586.178L591.382 582.649L591.64 579.516L591.984 575.363L592.285 571.791L592.572 568.261L593.031 562.591L593.375 558.452L593.461 557.403L593.748 553.874L594.422 545.652L594.924 539.486L595.813 528.727L596.142 524.602L596.63 518.805H532.172ZM535.111 521.498H536.316L535.197 522.604L535.111 521.498ZM540.159 521.498H541.407L546.727 526.757L540.79 532.639L535.599 527.522L535.484 526.105L540.159 521.498ZM536.675 540.521L540.79 536.453L546.727 542.321L540.79 548.204L536.99 544.447L536.675 540.521ZM591.797 544.447L588.012 548.204L582.061 542.321L588.012 536.453L592.113 540.521L591.797 544.447ZM548.648 528.727L554.6 534.61L548.648 540.492L542.697 534.61L548.648 528.727ZM548.648 524.942L545.25 521.569H552.09L548.648 524.942ZM556.521 536.523L562.472 542.392L556.521 548.274L550.656 542.335L556.521 536.523ZM564.394 556.042L558.457 550.174L564.394 544.305L570.33 550.174L564.394 556.042ZM572.252 552.073L578.203 557.956L572.266 563.824L566.315 557.942L572.252 552.073ZM562.472 557.942L556.521 563.824L550.656 557.899L556.593 552.017L562.472 557.942ZM558.457 534.61L564.394 528.727L570.33 534.61L564.394 540.492L558.457 534.61ZM572.252 536.523L578.203 542.392L572.252 548.274L566.315 542.392L572.252 536.523ZM574.188 534.61L580.139 528.727L586.076 534.61L580.139 540.492L574.188 534.61ZM586.076 550.202L580.139 556.071L574.188 550.202L580.139 544.334L586.076 550.202ZM580.139 559.884L586.076 565.766L580.139 571.635L574.188 565.766L580.139 559.884ZM578.203 573.548L572.252 579.417L566.315 573.548L572.266 567.666L578.203 573.548ZM564.394 571.635L558.457 565.766L564.394 559.884L570.33 565.766L564.394 571.635ZM562.472 573.548L556.521 579.417L550.656 573.463L556.593 567.581L562.472 573.548ZM554.6 581.175L550.742 584.988H546.555L542.697 581.175L548.648 575.292L554.6 581.175ZM548.648 571.493L542.697 565.625L548.648 559.742L554.6 565.625L548.648 571.493ZM548.648 555.901L542.697 550.032L548.648 544.32L554.6 550.188L548.648 555.901ZM555.818 521.427H557.08L562.4 526.686L556.449 532.569L550.656 526.771L555.818 521.427ZM560.923 521.427H567.864L564.465 524.801L560.923 521.427ZM571.564 521.427H572.811L578.131 526.686L572.18 532.569L566.244 526.686L571.564 521.427ZM583.452 521.427L580.067 524.801L576.669 521.427H583.452ZM588.557 521.427L593.217 526.048L593.102 527.466L587.94 532.583L581.989 526.7L587.309 521.441L588.557 521.427ZM593.604 521.427L593.504 522.518L592.4 521.427H593.604ZM592.328 536.92L589.862 534.468L592.73 531.633L592.328 536.92ZM591.224 551.407L589.933 550.131L591.453 548.615L591.224 551.45V551.407ZM590.406 561.415L588.012 563.782L582.061 557.913L588.012 552.031L590.88 554.937L590.406 561.415ZM590.048 565.809L589.933 565.695L590.062 565.554V565.809H590.048ZM589.015 578.34L588.012 579.346L582.061 573.478L588.012 567.595L589.761 569.324L589.015 578.34ZM586.076 585.059L588.012 583.145L588.585 583.712L588.471 585.129L586.076 585.059ZM582.233 585.059H578.045L574.188 581.175L580.139 575.292L586.076 581.175L582.233 585.059ZM570.33 585.059L572.252 583.145L574.188 585.059H570.33ZM562.286 585.059L558.457 581.175L564.394 575.292L570.33 581.175L566.43 585.044L562.286 585.059ZM554.585 585.059L556.521 583.145L558.457 585.059H554.585ZM540.245 583.641L540.819 583.074L542.74 584.988H540.346L540.245 583.641ZM539.055 569.253L540.819 567.524L546.756 573.407L540.819 579.275L539.786 578.269L539.055 569.253ZM538.739 565.469L538.897 565.625L538.768 565.738V565.469H538.739ZM537.865 554.866L540.819 551.96L546.756 557.843L540.819 563.711L538.395 561.344L537.865 554.866ZM537.32 548.572L538.869 550.089L537.564 551.379L537.32 548.572ZM535.886 531.633L538.754 534.468L536.316 537.019L535.886 531.661V531.633Z" fill="white"/>
</g>
<path d="M597.992 516.423H530.809C529.511 516.423 528.458 517.464 528.458 518.748V521.583C528.458 522.867 529.511 523.908 530.809 523.908H597.992C599.291 523.908 600.344 522.867 600.344 521.583V518.748C600.344 517.464 599.291 516.423 597.992 516.423Z" fill="#D4472B"/>
<path d="M535.986 591.196H592.801C594.1 591.196 595.153 590.155 595.153 588.872V586.037C595.153 584.753 594.1 583.712 592.801 583.712H535.986C534.687 583.712 533.634 584.753 533.634 586.037V588.872C533.634 590.155 534.687 591.196 535.986 591.196Z" fill="#D4472B"/>
<path d="M541.564 350.236H387.539C384.458 350.309 381.503 351.461 379.2 353.485C376.898 355.51 375.396 358.276 374.962 361.292L357.066 505.679H533.448L551.387 361.292C551.606 359.905 551.514 358.488 551.118 357.14C550.721 355.792 550.03 354.547 549.093 353.492C548.156 352.437 546.996 351.599 545.695 351.036C544.394 350.473 542.984 350.2 541.564 350.236Z" fill="#263238"/>
<path opacity="0.6" d="M541.564 350.236H387.539C384.458 350.309 381.503 351.461 379.2 353.485C376.898 355.51 375.396 358.276 374.962 361.292L357.066 505.679H533.448L551.387 361.292C551.606 359.905 551.514 358.488 551.118 357.14C550.721 355.792 550.03 354.547 549.093 353.492C548.156 352.437 546.996 351.599 545.695 351.036C544.394 350.473 542.984 350.2 541.564 350.236Z" fill="white"/>
<path opacity="0.2" d="M499.333 505.679H533.448L551.387 361.292C551.606 359.905 551.514 358.488 551.118 357.14C550.721 355.792 550.03 354.547 549.093 353.492C548.156 352.437 546.996 351.599 545.695 351.036C544.394 350.473 542.984 350.2 541.564 350.236H529.849C526.768 350.309 523.813 351.461 521.51 353.485C519.208 355.51 517.706 358.276 517.272 361.292L499.333 505.679Z" fill="black"/>
<path d="M523.568 590.615H511.608L506.718 538.083H527.224L523.568 590.615Z" fill="#263238"/>
<path d="M471.083 590.615H459.124L454.248 538.083H474.74L471.083 590.615Z" fill="#263238"/>
<path d="M382.003 590.615H370.044L365.168 538.083H385.66L382.003 590.615Z" fill="#263238"/>
<path d="M329.519 590.615H317.574L312.684 538.083H333.176L329.519 590.615Z" fill="#263238"/>
<path opacity="0.2" d="M471.083 590.615H459.124L454.248 538.083H474.74L471.083 590.615Z" fill="white"/>
<path opacity="0.2" d="M329.519 590.615H317.574L312.684 538.083H333.176L329.519 590.615Z" fill="white"/>
<path d="M532.344 535.815L531.254 549.394C531.218 549.872 530.999 550.318 530.642 550.641C530.285 550.965 529.817 551.143 529.332 551.138H311.479C310.996 551.139 310.529 550.961 310.173 550.638C309.817 550.314 309.597 549.87 309.558 549.394L308.482 535.815H532.344Z" fill="#263238"/>
<path opacity="0.2" d="M480.462 535.815L479.372 549.394C479.335 549.872 479.117 550.318 478.76 550.641C478.403 550.965 477.935 551.143 477.45 551.138H311.479C310.996 551.139 310.529 550.961 310.173 550.638C309.817 550.314 309.597 549.87 309.558 549.394L308.482 535.815H480.462Z" fill="white"/>
<path d="M466.05 498.733H384.412L379.508 443.45C379.035 438.161 376.578 433.238 372.618 429.649C368.659 426.061 363.485 424.067 358.113 424.059H286.413C285.159 424.058 283.92 424.315 282.772 424.814C281.625 425.312 280.595 426.041 279.748 426.954C278.901 427.868 278.255 428.945 277.852 430.118C277.449 431.291 277.298 432.535 277.407 433.769L278.54 446.526C278.714 448.557 279.588 450.468 281.016 451.938C282.444 453.409 284.339 454.35 286.384 454.606L288.937 454.932C290.462 455.124 291.874 455.827 292.938 456.923C294.003 458.019 294.656 459.443 294.787 460.956L300.968 530.782C301.199 533.234 302.344 535.513 304.181 537.177C306.018 538.84 308.415 539.77 310.906 539.784H466.05V498.733Z" fill="#263238"/>
<path opacity="0.6" d="M466.05 498.733H384.412L379.508 443.45C379.035 438.161 376.578 433.238 372.618 429.649C368.659 426.061 363.485 424.067 358.113 424.059H286.413C285.159 424.058 283.92 424.315 282.772 424.814C281.625 425.312 280.595 426.041 279.748 426.954C278.901 427.868 278.255 428.945 277.852 430.118C277.449 431.291 277.298 432.535 277.407 433.769L278.54 446.526C278.714 448.557 279.588 450.468 281.016 451.938C282.444 453.409 284.339 454.35 286.384 454.606L288.937 454.932C290.462 455.124 291.874 455.827 292.938 456.923C294.003 458.019 294.656 459.443 294.787 460.956L300.968 530.782C301.199 533.234 302.344 535.513 304.181 537.177C306.018 538.84 308.415 539.77 310.906 539.784H466.05V498.733Z" fill="white"/>
<path opacity="0.2" d="M329.82 443.38C329.347 438.09 326.89 433.167 322.93 429.579C318.971 425.99 313.796 423.996 308.425 423.988H358.055C363.427 423.996 368.602 425.99 372.561 429.579C376.52 433.167 378.978 438.09 379.451 443.38L384.355 498.662H334.782L329.82 443.38Z" fill="black"/>
<path opacity="0.1" d="M466.05 498.733H334.782L329.877 443.45C329.405 438.161 326.947 433.238 322.988 429.649C319.028 426.061 313.854 424.067 308.482 424.059H286.442C285.188 424.058 283.948 424.315 282.801 424.814C281.653 425.312 280.623 426.041 279.777 426.954C278.93 427.868 278.284 428.945 277.881 430.118C277.478 431.291 277.327 432.535 277.436 433.769L278.569 446.526C278.743 448.557 279.617 450.468 281.045 451.938C282.472 453.409 284.367 454.35 286.413 454.606L288.965 454.932C290.49 455.124 291.903 455.827 292.967 456.923C294.032 458.019 294.684 459.443 294.816 460.956L300.997 530.782C301.228 533.234 302.373 535.513 304.21 537.177C306.046 538.84 308.443 539.77 310.934 539.784H466.05V498.733Z" fill="white"/>
<path d="M332.387 506.969H484.792C488.768 506.969 491.991 503.783 491.991 499.853V476.677C491.991 472.747 488.768 469.561 484.792 469.561H332.387C328.411 469.561 325.188 472.747 325.188 476.677V499.853C325.188 503.783 328.411 506.969 332.387 506.969Z" fill="#263238"/>
<path opacity="0.5" d="M325.188 476.677V499.867C325.188 501.747 325.944 503.549 327.288 504.878C328.633 506.208 330.457 506.954 332.358 506.954H484.792C486.694 506.954 488.518 506.208 489.862 504.878C491.207 503.549 491.962 501.747 491.962 499.867V476.677C491.962 474.797 491.207 472.994 489.862 471.665C488.518 470.336 486.694 469.589 484.792 469.589H332.387C331.443 469.585 330.507 469.766 329.634 470.12C328.761 470.475 327.967 470.996 327.298 471.655C326.63 472.313 326.099 473.096 325.737 473.958C325.375 474.819 325.188 475.743 325.188 476.677Z" fill="white"/>
<path opacity="0.1" d="M325.188 476.677V499.867C325.187 500.92 325.423 501.96 325.88 502.911C326.336 503.862 327.001 504.701 327.827 505.367H441.514C443.416 505.367 445.24 504.62 446.584 503.291C447.929 501.962 448.684 500.159 448.684 498.279V475.075C448.684 474.017 448.444 472.973 447.983 472.019C447.521 471.065 446.85 470.225 446.017 469.561H332.387C331.44 469.557 330.503 469.738 329.628 470.095C328.752 470.451 327.957 470.975 327.288 471.637C326.619 472.298 326.089 473.084 325.728 473.949C325.368 474.814 325.184 475.741 325.188 476.677Z" fill="white"/>
<path d="M426.041 376.785C421.038 382.748 415.725 388.449 410.124 393.866C403.757 399.848 397.992 405.405 389.79 409.714C387.463 410.904 384.765 411.175 382.244 410.472C379.722 409.769 377.565 408.145 376.21 405.929C372.539 399.721 372.74 392.392 372.625 385.857C372.766 378.089 373.533 370.344 374.919 362.695L382.993 363.206C383.48 370.563 384.04 378.061 384.943 385.191C385.331 389.261 386.202 393.272 387.538 397.141C387.768 397.665 388.04 398.062 388.083 398.02C387.794 397.633 387.429 397.309 387.011 397.065C386.592 396.822 386.127 396.664 385.646 396.602C384.778 396.415 383.874 396.489 383.05 396.815C384.448 395.895 385.785 394.886 387.051 393.795C396.573 385.546 405.048 375.751 413.523 366.438L425.998 376.842L426.041 376.785Z" fill="#EBC0BB"/>
<path d="M400.645 376.8L411.386 384.567L419.402 390.379L420.564 388.962L423.518 385.347L429.254 378.43L418.025 354.332C414.139 356.884 405.736 369.159 402.251 374.39C401.233 375.878 400.645 376.8 400.645 376.8Z" fill="#D4472B"/>
<path opacity="0.3" d="M400.645 376.8L411.386 384.567L419.402 390.379L420.564 388.962L402.194 374.432C401.233 375.878 400.645 376.8 400.645 376.8Z" fill="white"/>
<path opacity="0.2" d="M411.386 384.567L419.402 390.379L423.518 385.347C422.557 377.324 421.553 369.131 421.553 369.131C417.133 373.536 413.673 378.79 411.386 384.567Z" fill="black"/>
<path d="M416.276 422.769L474.41 431.969C474.41 431.969 475.342 423.138 476.246 411.018C476.819 403.278 477.393 394.206 477.68 385.22C478.139 371.612 477.995 358.216 476.375 350.08C464.871 348.032 453.14 347.526 441.5 348.577C433.38 349.244 425.424 351.207 417.939 354.389C417.939 354.389 420.564 382.399 416.276 422.769Z" fill="#D4472B"/>
<path d="M391.08 373.894H384.484C383.253 373.799 382.11 373.228 381.305 372.304C380.499 371.38 380.095 370.178 380.182 368.961V354.687C380.095 353.469 380.499 352.268 381.305 351.344C382.11 350.419 383.253 349.848 384.484 349.754H391.08V352.277H384.484C383.552 352.277 382.778 353.382 382.778 354.687V368.961C382.778 370.265 383.552 371.37 384.484 371.37H391.08V373.894Z" fill="#263238"/>
<path d="M384.914 353.411L381.157 353.297C380.463 353.278 379.78 353.469 379.198 353.844C378.616 354.219 378.164 354.76 377.902 355.395L374.948 361.774C374.368 363.193 374.084 364.713 374.113 366.242C374.143 367.772 374.485 369.28 375.12 370.676L375.923 372.561C382.233 373.256 388.6 368.479 388.6 368.479L390.579 367.387C392.342 366.423 392.859 363.929 391.754 361.717L389.202 356.515C388.835 355.665 388.244 354.928 387.489 354.381C386.735 353.835 385.845 353.5 384.914 353.411Z" fill="#EEC1BB"/>
<path d="M385.789 375.099H402.581C403.302 375.099 403.886 374.521 403.886 373.809V349.399C403.886 348.687 403.302 348.109 402.581 348.109H385.789C385.068 348.109 384.484 348.687 384.484 349.399V373.809C384.484 374.521 385.068 375.099 385.789 375.099Z" fill="#263238"/>
<path d="M394.967 335.409C396.687 336.273 396.401 338.74 395.97 340.228C395.54 341.716 394.68 342.935 394.967 344.608C392.099 342.227 395.884 338.314 394.967 335.409Z" fill="#263238"/>
<path d="M391.224 335.409C392.93 336.273 392.658 338.74 392.213 340.228C391.769 341.716 390.937 342.935 391.224 344.608C388.356 342.227 392.142 338.314 391.224 335.409Z" fill="#263238"/>
<path d="M398.724 335.409C400.43 336.273 400.158 338.74 399.713 340.228C399.269 341.716 398.437 342.935 398.724 344.608C395.856 342.227 399.627 338.314 398.724 335.409Z" fill="#263238"/>
<path opacity="0.7" d="M394.967 335.409C396.687 336.273 396.401 338.74 395.97 340.228C395.54 341.716 394.68 342.935 394.967 344.608C392.099 342.227 395.884 338.314 394.967 335.409Z" fill="white"/>
<path opacity="0.7" d="M391.224 335.409C392.93 336.273 392.658 338.74 392.213 340.228C391.769 341.716 390.937 342.935 391.224 344.608C388.356 342.227 392.142 338.314 391.224 335.409Z" fill="white"/>
<path opacity="0.7" d="M398.724 335.409C400.43 336.273 400.158 338.74 399.713 340.228C399.269 341.716 398.437 342.935 398.724 344.608C395.856 342.227 399.627 338.314 398.724 335.409Z" fill="white"/>
<path d="M376.611 384.539L380.713 382.512L395.053 387.289L415.129 383.334L418.728 398.388C418.728 398.388 418.728 414.916 417.767 415.044C416.806 415.171 395.153 415.044 395.153 415.044L384.57 407.503L376.611 384.539Z" fill="#E0E0E0"/>
<path d="M420.305 384.752L427.06 419.339L399.986 420.813L381.716 414.704L374.088 382.144L394.995 388.777L420.305 384.752Z" fill="#263238"/>
<path opacity="0.2" d="M394.995 388.777L399.986 420.813L427.06 419.353L420.305 384.752L394.995 388.777Z" fill="white"/>
<path opacity="0.1" d="M394.995 388.777L399.986 420.813L381.716 414.704L374.088 382.144L394.995 388.777Z" fill="white"/>
<path d="M413.178 408.24L402.208 404.639L403.9 419.013C403.9 419.013 413.938 420.019 415.014 414.76L413.178 408.24Z" fill="#EEC1BB"/>
<path d="M393.26 407.772L395.225 419.58L403.9 419.013L402.208 404.625L393.26 407.772Z" fill="#EEC1BB"/>
<path opacity="0.2" d="M476.246 411.075C476.819 403.335 477.393 394.263 477.68 385.276C472.503 375.836 467.527 367.898 467.527 367.898C467.527 367.898 443.278 387.445 476.246 411.075Z" fill="black"/>
<path d="M482.412 378.472C479.429 392.066 472.905 414.647 460.099 422.117C458.911 422.727 457.633 423.148 456.313 423.364C451.889 423.8 447.426 423.671 443.034 422.982C431.485 421.439 420.064 419.071 408.862 415.894L410.296 408.013L432.953 409.246C438.933 409.572 449.373 409.983 453.173 409.345L452.714 409.586C452.915 409.402 453.33 409.033 453.517 408.821C456.715 405.093 458.564 400.415 460.429 395.581C462.815 388.915 464.83 382.124 466.466 375.24L482.412 378.472Z" fill="#EBC0BB"/>
<path d="M460.07 386.283L483.33 391.669L483.975 388.919C488.033 370.492 486.456 352.064 476.389 350.066C476.389 350.066 469.363 353.553 466.222 359.619C463.77 364.297 461.418 377.749 460.486 383.547C460.228 385.234 460.07 386.283 460.07 386.283Z" fill="#D4472B"/>
<path opacity="0.2" d="M437.327 399.409C443.322 399.409 448.182 393.361 448.182 385.9C448.182 378.439 443.322 372.391 437.327 372.391C431.332 372.391 426.472 378.439 426.472 385.9C426.472 393.361 431.332 399.409 437.327 399.409Z" fill="white"/>
<path d="M451.122 388.38L426.07 377.381L424.536 383.093L450.161 394.249L451.122 388.38Z" fill="#D4472B"/>
<path opacity="0.3" d="M451.122 388.38L426.07 377.381L424.536 383.093L450.161 394.249L451.122 388.38Z" fill="white"/>
<path opacity="0.2" d="M437.829 391.953L432.882 389.6V391.556L437.327 393.469L437.829 391.953Z" fill="white"/>
<path opacity="0.3" d="M449.573 380.046C449.573 380.046 446.189 372.845 441.242 371.144C436.295 369.443 430.731 373.171 430.731 373.171L430.057 371.583C430.057 371.583 435.993 368.181 441.385 369.726C446.777 371.271 450.477 379.45 450.477 379.45L449.573 380.046Z" fill="white"/>
<path opacity="0.3" d="M433.355 399.735C429.985 398.53 427.16 393.441 427.16 393.441L425.998 394.192C427.447 397.189 429.871 399.62 432.882 401.095C437.858 403.463 443.637 399.678 443.637 399.678L442.862 398.686C441.463 399.566 439.879 400.118 438.232 400.3C436.584 400.481 434.916 400.288 433.355 399.735Z" fill="white"/>
<path opacity="0.3" d="M460.07 386.283L483.33 391.669L483.975 388.919L460.472 383.547C460.228 385.234 460.07 386.283 460.07 386.283Z" fill="white"/>
<path opacity="0.3" d="M439.349 362.284C451.151 363.192 463.01 349.98 463.01 349.98C462.469 349.348 461.864 348.774 461.203 348.265C454.643 347.835 448.058 347.935 441.514 348.563C438.856 349.683 436.299 351.025 433.871 352.574C433.871 352.574 429.999 361.59 439.349 362.284Z" fill="white"/>
<path d="M452.757 321.39C452.757 322.906 452.757 324.65 452.757 326.521C453.087 334.912 454.764 345.643 460.257 349.314C458.168 352.339 455.443 354.882 452.267 356.769C449.092 358.655 445.541 359.84 441.858 360.243C434.688 361.25 433.527 356.416 434.688 353.453C437.339 352.574 439.53 350.694 440.783 348.223C442.217 344.849 441.055 340.838 439.349 337.067L452.757 321.39Z" fill="#EEC1BB"/>
<path opacity="0.2" d="M452.757 321.39C452.854 323.099 452.854 324.812 452.757 326.521C452.427 333.325 450.362 344.764 440.726 348.223C442.16 344.849 440.998 340.838 439.292 337.067L452.757 321.39Z" fill="black"/>
<path d="M430.931 309.596C435.793 311.637 434.818 316.896 426.629 326.436C421.668 322.183 419.058 312.445 421.696 309.426C424.335 306.407 426.687 307.838 430.931 309.596Z" fill="#263238"/>
<path d="M450.964 313.905C452.155 321.602 453.259 326.904 452.126 331.723C451.699 333.534 450.961 335.26 449.946 336.826C443.737 346.493 429.87 344.495 425.066 334.728C424.923 334.416 424.779 334.09 424.65 333.764C420.693 324.834 419.23 310.064 428.235 303.997C430.287 302.599 432.666 301.743 435.147 301.512C437.627 301.282 440.127 301.683 442.406 302.678C444.685 303.673 446.668 305.228 448.167 307.196C449.665 309.164 450.628 311.479 450.964 313.919V313.905Z" fill="#EEC1BB"/>
<path d="M435.936 320.043C436.108 320.893 435.807 321.673 435.248 321.786C434.688 321.9 434.115 321.319 433.928 320.482C433.742 319.646 434.043 318.866 434.588 318.739C435.133 318.611 435.75 319.235 435.936 320.043Z" fill="#263238"/>
<path d="M426.328 322.112C426.515 322.963 426.199 323.743 425.654 323.856C425.109 323.969 424.493 323.388 424.306 322.538C424.12 321.687 424.421 320.922 424.98 320.808C425.539 320.695 426.142 321.276 426.328 322.112Z" fill="#263238"/>
<path d="M429.569 321.843C429.109 324.628 428.265 327.337 427.06 329.895C427.741 330.19 428.48 330.333 429.223 330.314C429.967 330.294 430.697 330.112 431.362 329.781L429.569 321.843Z" fill="#ED847E"/>
<path d="M437.972 316.471C438.085 316.468 438.193 316.422 438.273 316.343C438.322 316.296 438.36 316.239 438.386 316.177C438.412 316.115 438.425 316.049 438.425 315.982C438.425 315.915 438.412 315.848 438.386 315.786C438.36 315.724 438.322 315.668 438.273 315.62C437.673 315.082 436.951 314.694 436.167 314.49C435.383 314.285 434.562 314.269 433.771 314.444C433.707 314.459 433.647 314.486 433.594 314.524C433.542 314.562 433.497 314.611 433.464 314.666C433.43 314.722 433.408 314.784 433.4 314.848C433.391 314.912 433.395 314.977 433.412 315.039C433.449 315.168 433.536 315.278 433.654 315.344C433.772 315.411 433.912 315.428 434.043 315.394C434.671 315.263 435.321 315.282 435.939 315.45C436.558 315.617 437.127 315.929 437.599 316.357C437.705 316.441 437.838 316.481 437.972 316.471Z" fill="#263238"/>
<path d="M421.223 319.83C421.316 319.808 421.402 319.762 421.473 319.698C421.543 319.633 421.595 319.552 421.625 319.462C421.758 318.841 422.037 318.261 422.441 317.768C422.845 317.275 423.361 316.884 423.948 316.627C424.075 316.579 424.177 316.484 424.234 316.362C424.29 316.24 424.295 316.101 424.249 315.975C424.206 315.851 424.116 315.749 423.998 315.691C423.88 315.632 423.743 315.622 423.618 315.663C422.867 315.974 422.204 316.46 421.685 317.08C421.165 317.699 420.805 318.434 420.635 319.221C420.618 319.283 420.614 319.348 420.623 319.412C420.632 319.476 420.653 319.538 420.687 319.594C420.72 319.649 420.765 319.697 420.817 319.736C420.87 319.774 420.93 319.801 420.994 319.816H421.223V319.83Z" fill="#263238"/>
<path d="M444.827 305.627C440.295 308.32 442.031 313.409 451.495 321.687C455.797 316.74 456.987 306.775 453.918 304.11C450.85 301.445 448.842 303.345 444.827 305.627Z" fill="#263238"/>
<path d="M433.254 334.927C433.165 334.925 433.08 334.893 433.012 334.836C432.944 334.779 432.898 334.701 432.882 334.615C432.869 334.516 432.894 334.416 432.952 334.334C433.011 334.253 433.098 334.196 433.197 334.175C434.492 334.056 435.731 333.591 436.779 332.829C437.827 332.068 438.646 331.039 439.148 329.852C439.161 329.804 439.184 329.759 439.215 329.721C439.247 329.682 439.286 329.65 439.331 329.628C439.375 329.605 439.424 329.592 439.474 329.589C439.524 329.586 439.574 329.594 439.621 329.611C439.716 329.637 439.797 329.7 439.845 329.785C439.894 329.87 439.906 329.971 439.879 330.065C439.346 331.395 438.45 332.552 437.29 333.408C436.131 334.264 434.753 334.785 433.312 334.912L433.254 334.927Z" fill="#263238"/>
<path d="M445.544 309.128C445.544 309.128 445.028 303.373 437.556 303.713C430.085 304.054 427.604 312.218 427.604 312.218C427.173 311.432 426.915 310.565 426.848 309.673C426.781 308.781 426.907 307.885 427.217 307.044C425.551 308.863 424.578 311.199 424.464 313.65C424.464 313.65 423.03 312.488 422.614 308.476L420.979 313.267C420.979 313.267 417.165 306.903 425.583 299.617C434 292.331 457.26 294.528 452.57 304.805L445.544 309.128Z" fill="#263238"/>
<path d="M432.265 325.118C432.07 325.118 431.88 325.058 431.72 324.947C431.606 324.877 431.508 324.784 431.431 324.674C431.355 324.564 431.302 324.44 431.276 324.31L430.544 320.723C430.494 320.462 430.55 320.192 430.7 319.971C430.851 319.751 431.083 319.598 431.347 319.547L437.958 318.229C438.088 318.202 438.222 318.201 438.352 318.225C438.483 318.25 438.607 318.3 438.718 318.373C438.828 318.445 438.924 318.539 438.997 318.648C439.071 318.757 439.123 318.879 439.148 319.008L439.88 322.609C439.934 322.868 439.882 323.138 439.736 323.36C439.58 323.574 439.351 323.725 439.091 323.785L432.466 325.103H432.265V325.118ZM438.13 318.923L431.505 320.241C431.43 320.258 431.364 320.303 431.322 320.366C431.279 320.43 431.263 320.507 431.276 320.582L432.021 324.182C432.04 324.253 432.08 324.318 432.136 324.366C432.21 324.395 432.292 324.395 432.365 324.366L438.976 323.048C439.014 323.04 439.051 323.025 439.083 323.003C439.115 322.981 439.142 322.953 439.163 322.92C439.189 322.852 439.189 322.776 439.163 322.708L438.431 319.107C438.408 319.055 438.37 319.011 438.321 318.981C438.273 318.951 438.216 318.935 438.159 318.937L438.13 318.923Z" fill="#263238"/>
<path d="M421.453 327.272C421.218 327.273 420.991 327.192 420.81 327.045C420.629 326.897 420.507 326.692 420.463 326.464L419.732 322.878C419.705 322.749 419.704 322.617 419.729 322.488C419.754 322.359 419.804 322.236 419.878 322.127C419.951 322.017 420.046 321.923 420.156 321.85C420.266 321.777 420.39 321.727 420.52 321.701L427.131 320.383C427.261 320.356 427.395 320.355 427.526 320.38C427.656 320.405 427.78 320.455 427.891 320.527C428.002 320.6 428.097 320.693 428.171 320.802C428.245 320.911 428.296 321.034 428.321 321.163L429.053 324.763C429.08 324.892 429.081 325.024 429.056 325.153C429.031 325.282 428.98 325.405 428.907 325.514C428.834 325.624 428.739 325.718 428.629 325.791C428.518 325.864 428.394 325.914 428.264 325.94L421.653 327.244L421.453 327.272ZM427.318 321.063L420.707 322.382C420.632 322.399 420.566 322.444 420.524 322.507C420.481 322.57 420.465 322.647 420.477 322.722L421.209 326.308C421.216 326.346 421.23 326.382 421.251 326.414C421.272 326.446 421.3 326.473 421.332 326.494C421.364 326.515 421.4 326.53 421.438 326.537C421.476 326.544 421.515 326.543 421.553 326.535L428.164 325.231C428.239 325.214 428.304 325.169 428.347 325.106C428.39 325.043 428.406 324.966 428.393 324.891L427.662 321.29C427.648 321.217 427.605 321.153 427.544 321.11C427.482 321.068 427.406 321.051 427.332 321.063H427.318Z" fill="#263238"/>
<path d="M428.164 322.509C428.118 322.51 428.073 322.502 428.031 322.485C427.989 322.468 427.951 322.442 427.92 322.41C427.854 322.344 427.817 322.255 427.817 322.162C427.817 322.069 427.854 321.98 427.92 321.914C428.35 321.497 428.892 321.211 429.482 321.091C430.072 320.97 430.685 321.02 431.247 321.234C431.292 321.251 431.332 321.277 431.367 321.31C431.401 321.342 431.428 321.382 431.447 321.426C431.466 321.469 431.476 321.516 431.476 321.563C431.476 321.611 431.466 321.658 431.448 321.701C431.432 321.745 431.407 321.785 431.375 321.819C431.343 321.853 431.304 321.88 431.261 321.898C431.218 321.917 431.172 321.927 431.125 321.927C431.078 321.927 431.032 321.918 430.989 321.9C430.562 321.735 430.096 321.695 429.646 321.782C429.197 321.87 428.782 322.083 428.451 322.396C428.414 322.435 428.37 322.465 428.32 322.485C428.27 322.504 428.217 322.513 428.164 322.509Z" fill="#263238"/>
<path d="M438.947 320.199C438.866 320.197 438.788 320.168 438.725 320.117C438.662 320.065 438.619 319.994 438.603 319.915C438.593 319.87 438.591 319.822 438.599 319.776C438.607 319.73 438.624 319.686 438.65 319.647C438.675 319.607 438.708 319.573 438.747 319.546C438.786 319.519 438.829 319.5 438.876 319.49L451.38 316.655C451.426 316.645 451.474 316.643 451.521 316.651C451.567 316.659 451.612 316.676 451.652 316.701C451.692 316.726 451.727 316.759 451.754 316.797C451.781 316.835 451.8 316.879 451.81 316.924C451.821 316.97 451.822 317.017 451.814 317.063C451.806 317.109 451.789 317.154 451.764 317.193C451.738 317.233 451.705 317.267 451.667 317.294C451.628 317.321 451.584 317.34 451.538 317.35L439.033 320.185L438.947 320.199Z" fill="#263238"/>
<path d="M457.747 321.106C457.563 323.764 456.32 326.241 454.291 327.995C451.595 330.291 448.742 328.25 448.225 324.947C447.767 321.971 448.627 317.194 451.954 316.173C455.281 315.153 457.962 317.846 457.747 321.106Z" fill="#EEC1BB"/>
<path d="M304.266 556.992C304.266 556.992 328.085 471.715 332.028 466.811C338.424 458.802 400.086 450.339 400.086 450.339L416.219 422.769L474.468 430.835C474.468 430.835 470.166 471.333 462.996 481.765C455.826 492.198 361.97 490.455 355.732 492.482C349.494 494.509 325.891 561.074 325.891 561.074L304.266 556.992Z" fill="#263238"/>
<path opacity="0.2" d="M400.143 450.339L421.18 448.001L402.395 446.498L400.143 450.339Z" fill="black"/>
<path opacity="0.2" d="M304.266 556.978L325.991 561.06C325.991 561.06 349.581 494.509 355.833 492.482C362.085 490.455 455.969 492.198 463.096 481.765C470.223 471.333 474.568 430.835 474.568 430.835L416.319 422.769L411.558 430.92L408.891 435.47L400.086 450.339C400.086 450.339 338.424 458.844 331.971 466.811C328.085 471.701 304.266 556.978 304.266 556.978Z" fill="white"/>
<path d="M443.837 446.512C443.837 446.512 376.21 420.898 357.797 428C339.385 435.101 281.164 499.314 281.164 499.314L294.329 515.785C294.329 515.785 353.295 460.404 360.192 457.243C367.09 454.082 436.338 488.428 436.338 488.428L443.837 446.512Z" fill="#263238"/>
<path opacity="0.2" d="M443.837 446.512C443.837 446.512 376.21 420.898 357.797 428C339.385 435.101 281.164 499.314 281.164 499.314L294.329 515.785C294.329 515.785 353.295 460.404 360.192 457.243C367.09 454.082 436.338 488.428 436.338 488.428L443.837 446.512Z" fill="white"/>
<path d="M271.471 525.042L265.591 515.289L283.416 498.832L289.281 508.57L271.471 525.042Z" fill="#EEC1BB"/>
<path opacity="0.2" d="M289.281 508.57L283.401 498.832L273.22 508.244L279.472 517.656L289.281 508.57Z" fill="black"/>
<path d="M264.559 514.084C264.559 514.084 264.487 513.914 264.559 513.9L264.473 513.716L264.573 513.886C264.702 513.787 267.326 511.887 267.441 510.314C267.445 510.117 267.405 509.922 267.323 509.743C267.241 509.564 267.12 509.406 266.968 509.279C266.81 509.12 266.602 509.018 266.379 508.99C266.155 508.961 265.928 509.008 265.735 509.123C264.998 509.779 264.525 510.674 264.401 511.646C264.258 510.554 263.724 509.548 262.895 508.811C262.746 508.731 262.578 508.688 262.408 508.688C262.237 508.688 262.07 508.731 261.92 508.811C261.669 508.913 261.452 509.082 261.295 509.301C261.138 509.519 261.046 509.777 261.031 510.044C261.114 510.799 261.476 511.496 262.049 512.001C262.75 512.735 263.534 513.386 264.387 513.943C264.38 513.956 264.377 513.97 264.377 513.985C264.377 514 264.38 514.014 264.387 514.028C264.387 514.028 264.387 514.028 264.473 514.028C264.496 514.054 264.525 514.073 264.559 514.084ZM265.878 509.633C266.007 509.548 266.222 509.492 266.509 509.747L266.609 509.832C266.751 509.992 266.823 510.201 266.81 510.413C266.81 511.349 265.491 512.624 264.659 513.333V513.064C264.651 511.815 265.082 510.603 265.878 509.633ZM261.461 510.158C261.482 509.99 261.545 509.831 261.646 509.695C261.746 509.558 261.88 509.449 262.035 509.378C262.11 509.34 262.194 509.32 262.279 509.32C262.363 509.32 262.447 509.34 262.522 509.378C263.239 509.747 263.799 511.774 264.071 513.319C262.422 512.057 261.433 510.909 261.461 510.158Z" fill="#D4472B"/>
<path d="M266.136 513.773L274.74 523.227C274.891 523.378 274.975 523.582 274.975 523.794C274.975 524.006 274.891 524.21 274.74 524.361L267.57 531.576C267.172 531.934 266.647 532.121 266.109 532.097C265.572 532.073 265.066 531.84 264.702 531.449C261.748 528.103 260.5 526.36 256.729 522.178C254.406 519.627 249.559 514.779 246.949 510.838C244.339 506.898 248.383 504.389 249.817 505.849C253.316 509.307 260.185 512.1 264.157 512.794C264.913 512.88 265.614 513.226 266.136 513.773Z" fill="#263238"/>
<path d="M292.206 521.002L275.213 502.546L282.312 494.239L300.552 514.836L292.206 521.002Z" fill="#D4472B"/>
<path opacity="0.2" d="M292.206 521.002L275.213 502.546L282.312 494.239L300.552 514.836L292.206 521.002Z" fill="white"/>
<path d="M300.194 576.029C300.194 576.029 300.05 575.916 300.05 575.901L299.892 575.774L300.064 575.887C300.064 575.717 301.498 572.797 300.767 571.408C300.677 571.23 300.546 571.075 300.384 570.957C300.222 570.839 300.034 570.76 299.835 570.728C299.62 570.663 299.389 570.673 299.181 570.756C298.973 570.838 298.799 570.988 298.688 571.181C298.37 572.106 298.401 573.112 298.774 574.016C297.928 573.137 296.881 572.258 296.064 572.301C295.894 572.308 295.73 572.359 295.586 572.449C295.443 572.538 295.326 572.663 295.246 572.811C295.077 573.02 294.971 573.272 294.941 573.538C294.91 573.804 294.956 574.073 295.074 574.314C295.523 574.932 296.187 575.366 296.938 575.533C297.914 575.828 298.919 576.018 299.935 576.1C299.949 576.107 299.963 576.111 299.978 576.111C299.994 576.111 300.008 576.107 300.021 576.1C300.021 576.1 300.021 576.1 300.093 576.1C300.134 576.089 300.17 576.064 300.194 576.029ZM299.161 571.507C299.161 571.365 299.376 571.224 299.763 571.309H299.878C299.981 571.342 300.076 571.396 300.157 571.466C300.238 571.537 300.305 571.623 300.351 571.72C300.591 572.926 300.44 574.175 299.921 575.292L299.749 575.079C299.134 573.994 298.926 572.729 299.161 571.507ZM295.547 574.087C295.486 573.928 295.466 573.757 295.488 573.589C295.511 573.421 295.576 573.261 295.676 573.123C295.718 573.052 295.776 572.991 295.846 572.947C295.915 572.903 295.995 572.875 296.078 572.868C296.881 572.868 298.387 574.286 299.376 575.561C297.311 575.292 295.892 574.767 295.547 574.087Z" fill="#D4472B"/>
<path d="M311.637 582.252L301.699 576.582L309.615 552.725L319.553 558.41L311.637 582.252Z" fill="#EEC1BB"/>
<path opacity="0.2" d="M319.553 558.409L309.615 552.74L305.083 566.376L315.208 571.55L319.553 558.409Z" fill="black"/>
<path d="M301.427 574.994L313.63 579.077C313.732 579.106 313.827 579.155 313.91 579.221C313.993 579.287 314.062 579.368 314.112 579.46C314.163 579.553 314.195 579.654 314.205 579.758C314.216 579.863 314.206 579.968 314.175 580.069L311.508 589.821C311.335 590.32 310.97 590.732 310.493 590.968C310.015 591.204 309.463 591.245 308.955 591.083C304.725 589.594 302.775 588.673 297.483 586.83C294.185 585.71 287.574 583.839 283.315 581.614C279.056 579.388 281.379 575.292 283.387 575.859C288.134 577.191 295.519 576.327 299.391 574.966C300.055 574.761 300.768 574.771 301.427 574.994Z" fill="#263238"/>
<path d="M325.059 568.715L301.126 560.819L303.205 550.146L329.304 559.317L325.059 568.715Z" fill="#D4472B"/>
<path opacity="0.2" d="M325.059 568.715L301.126 560.819L303.205 550.146L329.304 559.317L325.059 568.715Z" fill="white"/>
<path opacity="0.2" d="M429.712 485.238C429.712 485.238 369.484 455.258 358.514 451.218C347.544 447.178 324.098 460.049 320.011 491.886L324.844 486.67C324.844 486.67 330.465 469.277 332.014 466.825C333.563 464.373 362.472 460.134 362.472 460.134C362.472 460.134 407.127 482.262 429.712 485.238Z" fill="black"/>
<path opacity="0.2" d="M408.848 435.456L436.309 443.762C436.309 443.762 420.291 434.86 411.558 430.92L408.848 435.456Z" fill="black"/>
<path opacity="0.4" d="M456.299 429.956L474.525 432.21L473.822 437.667L454.392 435.399L456.299 429.956Z" fill="black"/>
<path opacity="0.4" d="M453.517 429.46L451.595 434.96L414.068 429.077L416.405 424.13L453.517 429.46Z" fill="black"/>
<path d="M433.756 428.085L432.48 431.713C432.312 432.156 431.995 432.528 431.583 432.768C431.17 433.008 430.688 433.101 430.214 433.032L423.776 431.926C423.564 431.895 423.362 431.818 423.185 431.7C423.007 431.582 422.859 431.426 422.75 431.244C422.642 431.062 422.576 430.858 422.557 430.647C422.539 430.437 422.568 430.225 422.643 430.027L423.919 426.384C424.085 425.943 424.4 425.573 424.81 425.336C425.22 425.098 425.701 425.008 426.17 425.08L432.609 426.185C432.822 426.214 433.025 426.29 433.205 426.408C433.384 426.525 433.534 426.68 433.644 426.863C433.754 427.045 433.821 427.25 433.841 427.461C433.86 427.673 433.831 427.886 433.756 428.085Z" fill="white"/>
<path d="M453.273 495.6L457.891 443.38C458.363 438.09 460.821 433.167 464.78 429.579C468.74 425.99 473.914 423.996 479.286 423.988H558.342C559.596 423.987 560.835 424.244 561.983 424.743C563.13 425.241 564.16 425.97 565.007 426.884C565.854 427.797 566.5 428.874 566.903 430.047C567.306 431.221 567.457 432.464 567.348 433.698L566.215 446.455C566.038 448.488 565.161 450.398 563.731 451.869C562.301 453.339 560.404 454.28 558.357 454.535L555.818 454.861C554.294 455.053 552.881 455.756 551.817 456.852C550.752 457.948 550.1 459.372 549.968 460.886L543.787 530.712C543.556 533.163 542.411 535.443 540.574 537.106C538.737 538.77 536.341 539.699 533.85 539.713H453.273V495.6Z" fill="#263238"/>
<path opacity="0.6" d="M453.273 495.6L457.891 443.38C458.363 438.09 460.821 433.167 464.78 429.579C468.74 425.99 473.914 423.996 479.286 423.988H558.342C559.596 423.987 560.835 424.244 561.983 424.743C563.13 425.241 564.16 425.97 565.007 426.884C565.854 427.797 566.5 428.874 566.903 430.047C567.306 431.221 567.457 432.464 567.348 433.698L566.215 446.455C566.038 448.488 565.161 450.398 563.731 451.869C562.301 453.339 560.404 454.28 558.357 454.535L555.818 454.861C554.294 455.053 552.881 455.756 551.817 456.852C550.752 457.948 550.1 459.372 549.968 460.886L543.787 530.712C543.556 533.163 542.411 535.443 540.574 537.106C538.737 538.77 536.341 539.699 533.85 539.713H453.273V495.6Z" fill="white"/>
<g opacity="0.2">
<path d="M486.771 530.683L492.952 460.857C493.084 459.343 493.736 457.92 494.801 456.824C495.865 455.727 497.278 455.025 498.803 454.833L501.355 454.507C503.402 454.254 505.298 453.313 506.726 451.842C508.154 450.371 509.028 448.459 509.199 446.427L510.332 433.67C510.441 432.435 510.29 431.192 509.887 430.019C509.484 428.846 508.838 427.768 507.991 426.855C507.144 425.942 506.114 425.213 504.967 424.714C503.82 424.216 502.58 423.959 501.326 423.96H558.342C559.596 423.959 560.835 424.216 561.983 424.714C563.13 425.213 564.16 425.942 565.007 426.855C565.854 427.768 566.5 428.846 566.903 430.019C567.306 431.192 567.457 432.435 567.348 433.67L566.215 446.427C566.038 448.459 565.161 450.37 563.731 451.84C562.301 453.31 560.404 454.252 558.357 454.507L555.818 454.833C554.294 455.025 552.881 455.727 551.817 456.824C550.752 457.92 550.1 459.343 549.968 460.857L543.787 530.683C543.556 533.135 542.411 535.414 540.574 537.078C538.737 538.741 536.341 539.67 533.85 539.684H476.834C479.325 539.67 481.722 538.741 483.558 537.078C485.395 535.414 486.54 533.135 486.771 530.683Z" fill="black"/>
</g>
<path opacity="0.1" d="M453.273 495.6L457.891 443.38C458.363 438.09 460.821 433.167 464.78 429.579C468.74 425.99 473.914 423.996 479.286 423.988H501.326C502.58 423.987 503.82 424.244 504.967 424.743C506.114 425.241 507.144 425.97 507.991 426.884C508.838 427.797 509.484 428.874 509.887 430.047C510.29 431.221 510.441 432.464 510.332 433.698L509.199 446.455C509.028 448.487 508.154 450.399 506.726 451.87C505.298 453.341 503.402 454.282 501.355 454.535L498.803 454.861C497.278 455.053 495.865 455.756 494.801 456.852C493.736 457.948 493.084 459.372 492.952 460.886L486.771 530.712C486.54 533.163 485.395 535.443 483.558 537.106C481.722 538.77 479.325 539.699 476.834 539.713H453.273V495.6Z" fill="white"/>
</svg>

